#!OML:ASF H:\Male1\Project 1\Capture day 1\Session 1\Male1.ASF
:FULLY-SPECIFIED
:DEGREES
376
root -13.1946 14.9773 1.58902 67.7849 -86.2004 -73.6041
lowerback 5.36859 1.64918 2.0095
upperback 0.597756 2.27683 -1.0329
thorax -2.27195 1.10838 -2.35272
lowerneck -4.16088 1.73691 6.74509
upperneck -0.427549 1.95802 -0.0534414
head 0.635044 0.958931 -1.11215
rclavicle -1.47101e-014 1.11319e-014
rhumerus 26.4547 50.6147 -51.7421
rradius 80.6169
rwrist -22.9269
rhand -9.18428 8.27508
rfingers 7.12502
rthumb 16.769 -21.0207
lclavicle -1.47101e-014 1.11319e-014
lhumerus 52.8565 -3.27061 56.2806
lradius 50.8507
lwrist 8.99092
lhand -43.6654 -0.29779
lfingers 7.12502
lthumb -16.4991 29.0207
rfemur 7.9932 3.64262 24.4435
rtibia 34.0739
rfoot -18.3225 -11.3356
rtoes -37.6071
lfemur -18.2521 -9.80748 -15.1682
ltibia 36.0302
lfoot -24.5357 26.6253
ltoes 26.1412
377
root -13.0452 14.962 1.53291 79.6635 -86.4566 -85.4834
lowerback 4.69281 1.81994 1.89119
upperback 1.03367 2.49302 -0.475694
thorax -1.46413 1.23186 -1.6921
lowerneck -4.49567 1.92191 6.2356
upperneck -1.03521 2.22015 -0.679914
head 0.513513 1.07233 -1.21677
rclavicle 2.16303e-014 7.95139e-015
rhumerus 27.2391 50.224 -50.4868
rradius 79.8519
rwrist -23.353
rhand -9.08553 7.77884
rfingers 7.12502
rthumb 16.8641 -21.5089
lclavicle 2.16303e-014 7.95139e-015
lhumerus 51.9398 -9.79152 48.8712
lradius 46.0463
lwrist 2.12656
lhand -45.4859 -5.48993
lfingers 7.12502
lthumb -18.2511 23.6738
rfemur 8.22485 4.05352 24.7748
rtibia 32.5853
rfoot -19.3292 -12.0748
rtoes -36.856
lfemur -18.929 -9.90278 -14.7849
ltibia 36.3456
lfoot -24.6386 26.9699
ltoes 27.4858
378
root -12.898 14.951 1.47901 89.3306 -86.2782 -95.1718
lowerback 4.45151 1.76226 2.7756
upperback 1.32163 2.44563 -0.434179
thorax -0.999658 1.21467 -2.1261
lowerneck -4.79498 2.17134 6.56587
upperneck -1.63635 2.51692 -1.35077
head 0.404081 1.19955 -1.48233
rclavicle -1.51325e-014 6.36111e-015
rhumerus 27.2307 49.8901 -50.7648
rradius 79.0942
rwrist -23.0859
rhand -8.8757 7.29299
rfingers 7.12502
rthumb 17.0661 -21.9774
lclavicle -1.51325e-014 6.36111e-015
lhumerus 50.2899 -16.0955 43.2987
lradius 45.4543
lwrist -8.92888
lhand -48.1244 0.435428
lfingers 7.12502
lthumb -20.788 29.3419
rfemur 8.48946 3.99186 25.3929
rtibia 31.0684
rfoot -20.3137 -12.9905
rtoes -35.5258
lfemur -19.526 -10.2822 -14.105
ltibia 36.4998
lfoot -24.5854 27.5458
ltoes 28.0738
379
root -12.7192 14.945 1.4211 98.9074 -84.8171 -104.631
lowerback 4.894 1.62767 4.51336
upperback 1.39029 2.36425 0.0507099
thorax -1.12863 1.16858 -2.61024
lowerneck -4.97246 2.54235 7.03542
upperneck -2.3515 2.96876 -2.28746
head 0.255768 1.39969 -1.86056
rclavicle -2.29006e-014 5.96354e-015
rhumerus 26.856 49.9719 -50.9578
rradius 78.6685
rwrist -22.9076
rhand -8.99245 7.19007
rfingers 7.12502
rthumb 16.9537 -22.09
lclavicle -2.29006e-014 5.96354e-015
lhumerus 47.2343 -21.1466 41.2922
lradius 47.6608
lwrist -14.6764
lhand -48.2339 -1.74192
lfingers 7.12502
lthumb -20.8931 27.153
rfemur 8.31442 4.61852 27.5942
rtibia 29.6247
rfoot -21.1041 -14.6648
rtoes -34.0287
lfemur -20.4919 -10.5951 -11.9127
ltibia 36.68
lfoot -24.5907 28.1352
ltoes 28.9838
380
root -12.5913 14.944 1.37389 102.253 -85.7412 -107.984
lowerback 4.78064 1.27424 4.00678
upperback 1.66018 1.85233 -0.106126
thorax -0.838727 0.922288 -2.4537
lowerneck -5.01628 2.94644 7.30897
upperneck -3.09843 3.47483 -2.94641
head 0.0728177 1.62991 -2.11836
rclavicle -2.76746e-015 -2.38542e-015
rhumerus 25.7429 50.3384 -51.1869
rradius 78.7736
rwrist -23.5809
rhand -10.1329 7.62716
rfingers 7.12502
rthumb 15.8557 -21.7436
lclavicle -2.76746e-015 -2.38542e-015
lhumerus 43.2618 -25.8035 41.3759
lradius 51.9947
lwrist -11.8211
lhand -47.3746 -9.1068
lfingers 7.12502
lthumb -20.0673 19.8769
rfemur 8.54317 4.15356 26.8357
rtibia 28.4187
rfoot -22.9057 -15.1063
rtoes -30.5354
lfemur -20.8879 -11.5236 -12.5546
ltibia 36.609
lfoot -24.5066 28.7397
ltoes 29.4257
381
root -12.4133 14.9427 1.30146 104.914 -85.7876 -110.489
lowerback 5.49873 1.0433 4.0423
upperback 1.60876 1.57841 -0.0843856
thorax -1.31145 0.773583 -2.45586
lowerneck -5.01312 3.14472 7.506
upperneck -3.6648 3.71497 -3.14985
head -0.0850187 1.73333 -2.22024
rclavicle -1.31741e-014 2.78299e-015
rhumerus 23.5028 50.3345 -52.2201
rradius 78.819
rwrist -23.9119
rhand -10.4915 7.04735
rfingers 7.12502
rthumb 15.5103 -22.3505
lclavicle -1.31741e-014 2.78299e-015
lhumerus 39.3035 -30.6372 42.4859
lradius 56.1487
lwrist -6.73046
lhand -42.3865 -15.9476
lfingers 7.12502
lthumb -15.2675 13.4689
rfemur 8.23827 4.88933 27.5525
rtibia 27.3561
rfoot -23.0978 -17.1147
rtoes -30.2587
lfemur -22.0082 -11.6108 -11.9286
ltibia 36.9903
lfoot -23.6761 28.8077
ltoes 29.4224
382
root -12.2547 14.9391 1.23868 109.518 -86.3165 -115.052
lowerback 6.02029 0.923745 3.83964
upperback 1.6716 1.42134 -0.381729
thorax -1.54615 0.690655 -2.64997
lowerneck -5.06099 3.18407 7.82104
upperneck -4.04307 3.73783 -3.13751
head -0.189363 1.72965 -2.27556
rclavicle 1.18153e-014 -3.97569e-015
rhumerus 20.6762 50.1592 -53.6723
rradius 78.377
rwrist -24.274
rhand -12.1259 7.83195
rfingers 7.12502
rthumb 13.9357 -21.681
lclavicle 1.18153e-014 -3.97569e-015
lhumerus 35.47 -35.4029 44.0664
lradius 59.3326
lwrist -4.89928
lhand -40.2389 -17.0171
lfingers 7.12502
lthumb -13.1981 12.5451
rfemur 7.95493 5.63569 27.5227
rtibia 26.7082
rfoot -23.5934 -18.5602
rtoes -28.3498
lfemur -22.5828 -11.6598 -12.0048
ltibia 36.7285
lfoot -22.8746 28.9529
ltoes 29.5612
383
root -11.9869 14.9039 1.15547 108.243 -82.6011 -113.683
lowerback 8.21135 0.998051 7.00537
upperback 1.45913 1.90441 0.710264
thorax -2.88048 0.863548 -3.39359
lowerneck -4.97289 3.21443 8.00272
upperneck -4.59561 3.76293 -3.26557
head -0.37172 1.72559 -2.35759
rclavicle 2.47363e-014 1.94809e-014
rhumerus 17.9194 49.7917 -54.777
rradius 77.6777
rwrist -24.3988
rhand -13.1834 5.75476
rfingers 7.12502
rthumb 12.9164 -23.8255
lclavicle 2.47363e-014 1.94809e-014
lhumerus 31.9106 -39.6952 46.1512
lradius 61.1342
lwrist -5.87905
lhand -41.6317 -21.2563
lfingers 7.12502
lthumb -14.5404 8.21416
rfemur 6.79995 8.36555 32.522
rtibia 26.2046
rfoot -23.0888 -20.8924
rtoes -25.471
lfemur -24.0865 -10.219 -7.04778
ltibia 36.865
lfoot -22.1043 28.3781
ltoes 32.1978
384
root -11.9274 14.9269 1.11589 109.986 -86.7506 -115.734
lowerback 7.26724 0.662685 3.69861
upperback 2.04706 1.09268 -0.417658
thorax -1.87846 0.519057 -2.6033
lowerneck -4.46514 3.23722 8.02691
upperneck -5.22997 3.82617 -3.30632
head -0.655016 1.74552 -2.39069
rclavicle -4.21175e-015 2.38542e-015
rhumerus 14.7449 49.7186 -56.1923
rradius 76.5315
rwrist -24.86
rhand -14.4495 6.91955
rfingers 7.12502
rthumb 11.6957 -22.734
lclavicle -4.21175e-015 2.38542e-015
lhumerus 28.1741 -43.8013 48.7195
lradius 61.8114
lwrist -7.38138
lhand -39.917 -18.6965
lfingers 7.12502
lthumb -12.8878 10.8856
rfemur 7.35429 6.623 28.063
rtibia 25.9173
rfoot -24.2964 -20.0327
rtoes -25.301
lfemur -23.7099 -11.0645 -11.4774
ltibia 36.4225
lfoot -21.9566 28.2456
ltoes 33.3783
385
root -11.7758 14.9308 1.05795 106.705 -86.774 -112.538
lowerback 7.69756 0.564063 3.94347
upperback 2.27403 0.985438 -0.37709
thorax -1.88621 0.464677 -2.69479
lowerneck -4.14117 3.11115 7.79912
upperneck -5.68712 3.69015 -3.19697
head -0.87008 1.67238 -2.32704
rclavicle 5.97596e-015 5.56597e-015
rhumerus 11.237 49.1279 -57.8183
rradius 75.1064
rwrist -25.0088
rhand -14.4935 5.71088
rfingers 7.12502
rthumb 11.6532 -23.9451
lclavicle 5.97596e-015 5.56597e-015
lhumerus 24.553 -47.5008 51.7707
lradius 61.6692
lwrist -8.24172
lhand -40.3327 -20.3377
lfingers 7.12502
lthumb -13.2885 9.21862
rfemur 6.88634 6.48383 28.3216
rtibia 25.7079
rfoot -25.1937 -19.6171
rtoes -25.0935
lfemur -24.3087 -10.647 -11.0348
ltibia 36.3058
lfoot -21.6021 27.8959
ltoes 34.8516
386
root -11.6318 14.9412 1.00338 104.889 -86.7587 -110.88
lowerback 7.99369 0.568512 4.22508
upperback 2.63931 1.00669 -0.331309
thorax -1.66546 0.480406 -2.80891
lowerneck -4.09062 2.87225 7.5116
upperneck -5.97953 3.38209 -3.09692
head -0.995526 1.51626 -2.25058
rclavicle -2.00027e-015 -9.14409e-015
rhumerus 7.66451 48.1414 -59.3776
rradius 73.5345
rwrist -25.333
rhand -14.263 4.4556
rfingers 7.12502
rthumb 11.8755 -25.1876
lclavicle -2.00027e-015 -9.14409e-015
lhumerus 20.8254 -50.5941 55.5153
lradius 60.433
lwrist -8.86546
lhand -40.8666 -19.9307
lfingers 7.12502
lthumb -13.8031 9.59135
rfemur 6.31135 6.16458 28.4594
rtibia 25.8034
rfoot -25.6337 -19.0102
rtoes -23.683
lfemur -24.5209 -10.3517 -10.6507
ltibia 35.7703
lfoot -21.6711 27.4942
ltoes 35.9902
